Coordinates
version=1
nRows=27
nColumns=38
inDegrees=no

Units are S.I. units (second, meters, Newtons, ...)
If the header above contains a line with 'inDegrees', this indicates whether rotational values are in degrees (yes) or radians (no).

endheader
time	pelvis_tilt	pelvis_list	pelvis_rotation	pelvis_tx	pelvis_ty	pelvis_tz	hip_flexion_r	hip_adduction_r	hip_rotation_r	knee_angle_r	ankle_angle_r	subtalar_angle_r	mtp_angle_r	hip_flexion_l	hip_adduction_l	hip_rotation_l	knee_angle_l	ankle_angle_l	subtalar_angle_l	mtp_angle_l	lumbar_extension	lumbar_bending	lumbar_rotation	arm_flex_r	arm_add_r	arm_rot_r	elbow_flex_r	pro_sup_r	wrist_flex_r	wrist_dev_r	arm_flex_l	arm_add_l	arm_rot_l	elbow_flex_l	pro_sup_l	wrist_flex_l	wrist_dev_l
1.98	-0.0144906	1.3569	-1.58169	0.628195	0.459744	1.00367	-0.230359	0.0425402	-0.199312	0.65415	0.0012135	0	0	0.201287	-0.0249148	-0.237374	0.292864	-0.177517	0	0	-0.336658	0.178685	0.369434	-0.177176	-0.468404	-0.245539	1.73796	0.678371	0	0	0.449087	-0.371892	0.411686	1.00937	0.692774	0	0
1.99	-0.0119859	1.35449	-1.58649	0.628885	0.44912	1.00221	-0.239195	0.0387464	-0.194473	0.664472	-0.0016391	0	0	0.19291	-0.0247322	-0.237658	0.295713	-0.18218	0	0	-0.338491	0.176599	0.370931	-0.176007	-0.468281	-0.244236	1.73692	0.677929	0	0	0.449555	-0.372524	0.412277	1.00858	0.692308	0	0
2	-0.00828322	1.35137	-1.59304	0.629497	0.438341	1.00088	-0.248241	0.0347745	-0.187538	0.67613	-0.0064365	0	0	0.178814	-0.0227795	-0.229487	0.291998	-0.188889	0	0	-0.341156	0.173693	0.37312	-0.17529	-0.467653	-0.243332	1.73586	0.677837	0	0	0.450383	-0.37323	0.413489	1.00753	0.691777	0	0
2.01	-0.0050254	1.34813	-1.59904	0.630245	0.427349	0.999577	-0.256946	0.0308011	-0.179653	0.689119	-0.0127039	0	0	0.161807	-0.02018	-0.21603	0.28777	-0.194204	0	0	-0.3438	0.170902	0.375524	-0.175643	-0.467117	-0.242942	1.73532	0.67818	0	0	0.451044	-0.373675	0.415007	1.0065	0.691356	0	0
2.02	-0.00445497	1.34477	-1.603	0.631003	0.416043	0.99821	-0.265421	0.0272554	-0.170355	0.703181	-0.0203189	0	0	0.148787	-0.0204923	-0.211819	0.298762	-0.196205	0	0	-0.346229	0.168535	0.378719	-0.177141	-0.466988	-0.242662	1.73533	0.679136	0	0	0.451012	-0.374314	0.416576	1.00612	0.6911	0	0
2.03	0.00179261	1.34263	-1.61344	0.631783	0.40447	0.996843	-0.271494	0.0217372	-0.16017	0.719729	-0.0214777	0	0	0.137527	-0.0188298	-0.211693	0.308007	-0.197518	0	0	-0.346651	0.16448	0.381839	-0.178777	-0.466652	-0.241443	1.7341	0.6788	0	0	0.449786	-0.374989	0.417035	1.00564	0.692037	0	0
2.04	0.02329	1.33653	-1.63944	0.632717	0.393034	0.996149	-0.280611	0.0113783	-0.150346	0.737339	-0.0391839	0	0	0.123515	-0.011992	-0.220339	0.30758	-0.213455	0	0	-0.351845	0.155924	0.384196	-0.179194	-0.466379	-0.239647	1.73225	0.6822	0	0	0.449457	-0.376504	0.418376	1.00603	0.691877	0	0
2.05	0.0619458	1.33033	-1.67999	0.634019	0.381957	0.995941	-0.286772	-0.00357343	-0.142522	0.75923	-0.05018	0	0	0.117352	-0.000564008	-0.23239	0.31463	-0.232511	0	0	-0.357266	0.143016	0.38316	-0.178574	-0.46524	-0.237784	1.72896	0.684863	0	0	0.44985	-0.377372	0.418543	1.0056	0.693378	0	0
2.06	0.103771	1.32588	-1.72148	0.635519	0.3711	0.995935	-0.28796	-0.018402	-0.133047	0.785151	-0.0650017	0	0	0.120065	0.00855044	-0.245574	0.34104	-0.250208	0	0	-0.361046	0.129614	0.38049	-0.178649	-0.464277	-0.236282	1.7257	0.682206	0	0	0.450897	-0.377834	0.419444	1.00472	0.69394	0	0
2.07	0.138291	1.32416	-1.7539	0.63721	0.360263	0.995971	-0.283151	-0.0299272	-0.12098	0.815329	-0.0867553	0	0	0.126211	0.0142759	-0.252055	0.375972	-0.261621	0	0	-0.361841	0.119653	0.376827	-0.179551	-0.462925	-0.235444	1.72257	0.681166	0	0	0.451232	-0.377198	0.419655	1.00245	0.695423	0	0
2.08	0.159181	1.32331	-1.77176	0.639101	0.349446	0.99615	-0.274662	-0.0371039	-0.106848	0.849092	-0.115354	0	0	0.13226	0.0166278	-0.25226	0.412792	-0.266085	0	0	-0.362527	0.114734	0.373919	-0.182024	-0.462268	-0.236257	1.72103	0.680725	0	0	0.451505	-0.375008	0.419977	0.998968	0.697451	0	0
2.09	0.163281	1.32214	-1.77358	0.64105	0.338661	0.996509	-0.263802	-0.0399289	-0.0900425	0.885942	-0.169472	0	0	0.137524	0.0138318	-0.252841	0.451616	-0.26535	0	0	-0.364995	0.114618	0.373895	-0.186865	-0.46406	-0.238567	1.72208	0.674104	0	0	0.452082	-0.371212	0.420799	0.995035	0.700511	0	0
2.1	0.156781	1.31845	-1.76628	0.64289	0.328064	0.99722	-0.253122	-0.0405602	-0.0716955	0.924807	-0.213425	0	0	0.136044	0.0101205	-0.248768	0.481453	-0.262973	0	0	-0.371452	0.116607	0.375028	-0.190663	-0.467069	-0.240389	1.72403	0.670472	0	0	0.452036	-0.368305	0.421504	0.993252	0.700611	0	0
2.11	0.148982	1.31381	-1.75957	0.64451	0.317709	0.99815	-0.239963	-0.0410862	-0.0526429	0.966919	-0.257126	0	0	0.129264	0.00765661	-0.241411	0.501461	-0.258582	0	0	-0.379859	0.117942	0.377431	-0.193522	-0.470639	-0.241717	1.72637	0.666951	0	0	0.451545	-0.366297	0.42177	0.993339	0.69944	0	0
2.12	0.145147	1.30864	-1.75858	0.645874	0.307607	0.999144	-0.223765	-0.0425707	-0.0341078	1.013	-0.297143	0	0	0.119921	0.00570467	-0.241287	0.51637	-0.25532	0	0	-0.38916	0.117223	0.38007	-0.194544	-0.474147	-0.24165	1.7284	0.663948	0	0	0.450492	-0.366095	0.421834	0.995521	0.697431	0	0
2.13	0.147857	1.30372	-1.76512	0.647039	0.297701	1.00002	-0.204098	-0.0454624	-0.0172816	1.06305	-0.328321	0	0	0.109797	0.00559744	-0.248931	0.526367	-0.25472	0	0	-0.397838	0.114124	0.382033	-0.193838	-0.476786	-0.240393	1.72989	0.662553	0	0	0.449041	-0.367794	0.422012	0.999212	0.695441	0	0
2.14	0.154912	1.29944	-1.77611	0.648186	0.287916	1.00068	-0.181424	-0.0493199	-0.00328827	1.1151	-0.352381	0	0	0.0994396	0.00816545	-0.259037	0.531641	-0.254798	0	0	-0.405296	0.109913	0.383255	-0.192715	-0.47881	-0.239013	1.73178	0.663621	0	0	0.447489	-0.370358	0.422333	1.00332	0.693957	0	0
2.15	0.163327	1.29561	-1.78835	0.649384	0.278222	1.00123	-0.156336	-0.0535824	0.00834658	1.16688	-0.397303	0	0	0.0895278	0.0122545	-0.270765	0.538519	-0.251014	0	0	-0.411513	0.105822	0.383363	-0.190936	-0.483279	-0.234826	1.73374	0.649282	0	0	0.446316	-0.374186	0.425076	1.00706	0.686135	0	0
2.16	0.170438	1.28986	-1.79807	0.650668	0.268654	1.00204	-0.133693	-0.0577323	0.0167621	1.2149	-0.41907	0	0	0.0769693	0.0174354	-0.282261	0.547566	-0.24516	0	0	-0.419701	0.102372	0.382557	-0.189243	-0.484656	-0.233544	1.73628	0.646688	0	0	0.446046	-0.376785	0.427094	1.00894	0.68209	0	0
2.17	0.173338	1.2832	-1.80166	0.652078	0.259226	1.00311	-0.113338	-0.0604985	0.022311	1.25828	-0.427457	0	0	0.0628306	0.0219103	-0.292127	0.557067	-0.237691	0	0	-0.428923	0.10078	0.380659	-0.187858	-0.485489	-0.233318	1.73905	0.644888	0	0	0.44697	-0.378382	0.429921	1.00889	0.678252	0	0
2.18	0.169458	1.27644	-1.79598	0.653615	0.249953	1.0044	-0.0953057	-0.0605896	0.0241415	1.29677	-0.420107	0	0	0.0478746	0.0239681	-0.298581	0.565274	-0.230077	0	0	-0.438545	0.10219	0.377654	-0.187013	-0.485878	-0.234118	1.74183	0.643981	0	0	0.449023	-0.378695	0.433197	1.00685	0.674723	0	0
2.19	0.158927	1.27024	-1.78122	0.655179	0.240819	1.00587	-0.0785299	-0.0577564	0.0217447	1.33093	-0.402398	0	0	0.0329327	0.0235658	-0.299169	0.571157	-0.223922	0	0	-0.447841	0.106555	0.373656	-0.18668	-0.485817	-0.235615	1.7442	0.643865	0	0	0.451666	-0.378053	0.436241	1.00373	0.671764	0	0
2.2	0.143871	1.26508	-1.75971	0.656707	0.231792	1.00743	-0.0615459	-0.0525957	0.0158329	1.36154	-0.373577	0	0	0.0192872	0.0207211	-0.295745	0.575902	-0.217705	0	0	-0.455997	0.113254	0.368413	-0.18629	-0.484745	-0.237413	1.74563	0.644409	0	0	0.454294	-0.377466	0.439179	1.00072	0.669042	0	0
2.21	0.126157	1.26137	-1.73426	0.658142	0.222853	1.00899	-0.042978	-0.0455411	0.00872728	1.38845	-0.353122	0	0	0.00750605	0.0158152	-0.290952	0.579689	-0.212911	0	0	-0.462092	0.121604	0.361652	-0.184721	-0.483292	-0.237657	1.74518	0.645494	0	0	0.45576	-0.377422	0.440577	0.998254	0.667862	0	0
2.22	0.107505	1.25845	-1.70773	0.659434	0.213967	1.01055	-0.0233921	-0.0374829	0.00206715	1.41121	-0.349575	0	0	-0.00403477	0.00954015	-0.285925	0.582445	-0.210087	0	0	-0.467345	0.130132	0.355674	-0.184041	-0.482208	-0.237922	1.74447	0.643001	0	0	0.457067	-0.377574	0.441898	0.996992	0.66832	0	0
2.23	0.0903052	1.2566	-1.68316	0.66054	0.20502	1.01209	-0.00292284	-0.0292816	-0.0036338	1.43005	-0.334764	0	0	-0.0152745	0.00313107	-0.28141	0.584963	-0.204369	0	0	-0.470785	0.137944	0.349528	-0.182722	-0.479022	-0.238239	1.74201	0.649824	0	0	0.456908	-0.378852	0.442346	0.997603	0.667611	0	0
2.24	0.0738489	1.25382	-1.6607	0.661459	0.196078	1.0138	0.0162014	-0.0212923	-0.00798375	1.44384	-0.331119	0	0	-0.0287484	-0.00306457	-0.279743	0.586105	-0.200833	0	0	-0.475367	0.144648	0.345605	-0.183145	-0.47748	-0.238695	1.74042	0.648233	0	0	0.457067	-0.38003	0.443316	0.999173	0.667882	0	0
